<svg width="100" height="100" viewBox="0 0 100 100" fill="none" xmlns="http://www.w3.org/2000/svg">
<circle cx="50" cy="50" r="50" fill="#F2F2F2"/>
<g clip-path="url(#clip0_18_55)">
<path d="M60.1964 30.9427C58.6857 26.062 53.203 23.2434 47.9504 24.6471C42.6978 26.0509 39.6644 31.1455 41.1752 36.0262C42.4003 39.9845 46.2381 42.586 50.4468 42.6793L52.1933 43.362L49.7181 51.902L62.4823 54.1366L67.6698 41.7295C67.6698 41.7295 60.1398 41.8605 58.2175 39.4485C60.2941 37.1799 61.1487 34.0193 60.1964 30.9427Z" fill="#ED9DA0"/>
<path d="M14.1993 73.7228L34.0655 81L53.3594 78.3523L33.032 72.7969L14.1993 73.7228Z" fill="#090814"/>
<path d="M32.922 70.7223L51.9304 61.906L55.9827 67.6289L35.5436 75.577C35.0971 76.8956 33.9852 78.1267 32.3911 78.87C29.6019 80.1705 26.4018 79.486 25.2435 77.3411C24.0851 75.1962 25.4073 72.4031 28.1965 71.1026C29.7906 70.3593 31.5174 70.2668 32.922 70.7223Z" fill="#ED9DA0"/>
<path d="M65.1787 41.5443C65.1787 41.5443 63.3238 50.4826 56.847 50.2974C50.3701 50.1123 51.5658 45.8531 51.5658 45.8531L45.4481 49.0475C45.4481 49.0475 42.7971 52.5196 42.7971 56.8713L40.9039 65.297L38.2135 67.8896L46.185 73.7228L50.2704 68.3525L54.3559 79.8337L84 81L83.452 57.3343C83.452 57.3343 81.8576 45.9457 75.0818 43.6309C68.306 41.3162 65.1787 41.5443 65.1787 41.5443Z" fill="#0F172A"/>
<path d="M48.6901 27.2386C48.6901 27.2386 44.8054 30.5046 40.8281 29.9889C36.8509 29.4732 36.111 28.184 36.111 27.6683C36.111 27.6683 36.111 27.8402 37.2209 28.184L37.6834 24.4883C37.6834 24.4883 38.2383 25.4577 40.2732 25.7895C40.2732 25.7895 38.5158 25.1072 40.2732 23.7664C40.2732 23.7664 41.1981 24.4883 42.0306 24.4883C42.0306 24.4883 46.6552 18.644 55.8121 22.3397V20.8041L56.6446 22.7694L57.7186 22.6826L58.7719 22.5975C58.7719 22.5975 61.0843 25.09 60.8993 26.8089C60.7143 28.5278 64.2231 37.1615 58.1677 39.8063C58.1677 39.8063 59.6044 32.1375 57.107 33.9424C54.6097 35.7473 53.0373 32.911 53.0373 32.911L48.6901 27.2386Z" fill="#090814"/>
<path opacity="0.5" d="M16.2668 65.0322C15.7043 65.0322 15.1743 64.8342 14.766 64.4696C14.3363 64.0859 14.0997 63.5695 14.0997 63.0157V36.4669C14.0997 35.8728 14.3794 35.312 14.8673 34.9281C15.3551 34.5442 15.9959 34.3799 16.6271 34.478L38.9289 37.9383C39.9868 38.1024 40.7491 38.945 40.7415 39.9416L40.5697 62.2138C40.5613 63.2928 39.6459 64.1714 38.4857 64.2142L16.3557 65.0305C16.326 65.0316 16.2964 65.0322 16.2668 65.0322Z" fill="white"/>
<path d="M16.2668 65.1248C15.6794 65.1248 15.1218 64.9158 14.6969 64.5363C14.2476 64.135 14 63.595 14 63.0157V36.4668C14 35.8455 14.2926 35.2589 14.8029 34.8574C15.3131 34.4558 15.9838 34.2843 16.6435 34.3866L38.9453 37.847C40.0518 38.0186 40.8491 38.8998 40.8412 39.9422L40.6693 62.2145C40.6608 63.312 39.755 64.2114 38.589 64.3011L38.5891 64.303L16.3596 65.123C16.3286 65.1241 16.2977 65.1248 16.2668 65.1248ZM16.2681 34.5428C15.7821 34.5428 15.3088 34.7019 14.9317 34.9987C14.4662 35.3649 14.1993 35.9 14.1993 36.4668V63.0157C14.1993 63.5441 14.425 64.0367 14.8351 64.4028C15.2431 64.7673 15.7867 64.9592 16.3518 64.938L38.4817 64.1217C39.5887 64.0809 40.462 63.2425 40.47 62.2132L40.6419 39.9409C40.6491 38.99 39.9218 38.1862 38.9124 38.0296L16.6106 34.5693C16.4965 34.5516 16.3819 34.5428 16.2681 34.5428Z" fill="#090814"/>
<path d="M23.9965 51.2531H23.9912L17.3006 51.225C16.607 51.2221 16.0427 50.6954 16.0427 50.0508V42.2412C16.0427 41.9084 16.1955 41.5901 16.4619 41.3677C16.7278 41.1457 17.0851 41.0387 17.4411 41.0736L24.1312 41.7406C24.7748 41.8047 25.2601 42.3067 25.2601 42.9081V50.0789C25.2601 50.3936 25.128 50.6891 24.8879 50.9111C24.6495 51.1317 24.3329 51.2531 23.9965 51.2531ZM17.3074 41.2523C17.0457 41.2523 16.791 41.3418 16.5951 41.5054C16.3707 41.6927 16.242 41.9609 16.242 42.2412V50.0508C16.242 50.5938 16.7174 51.0374 17.3016 51.0398L23.9917 51.068L23.9965 51.1606V51.068C24.2799 51.068 24.5465 50.9657 24.7474 50.7799C24.9495 50.5929 25.0608 50.344 25.0608 50.0789V42.9081C25.0608 42.4015 24.652 41.9787 24.11 41.9247L17.4199 41.2578C17.3824 41.2541 17.3448 41.2523 17.3074 41.2523Z" fill="#090814"/>
<path d="M37.1491 51.2234H27.0216C26.3248 51.2234 25.758 50.6967 25.758 50.0492V43.5033C25.758 43.1764 25.9063 42.8619 26.1648 42.6402C26.423 42.4188 26.7727 42.3072 27.1232 42.3328L37.2506 43.0918C37.9023 43.1406 38.4128 43.6547 38.4128 44.2622V50.0492C38.4128 50.6967 37.8459 51.2234 37.1491 51.2234ZM27.0228 42.5143C26.7563 42.5143 26.4968 42.6076 26.2999 42.7763C26.0822 42.963 25.9573 43.228 25.9573 43.5033V50.0492C25.9573 50.5946 26.4348 51.0382 27.0216 51.0382H37.1491C37.736 51.0382 38.2135 50.5946 38.2135 50.0492V44.2622C38.2135 43.7505 37.7835 43.3175 37.2347 43.2763L27.1073 42.5174C27.0791 42.5153 27.0508 42.5143 27.0228 42.5143Z" fill="#090814"/>
<path d="M27.2526 43.7235V44.373L32.5338 44.5568V44.0081L27.2526 43.7235Z" fill="#090814"/>
<path d="M27.2526 45.2853V45.9238L36.3202 46.2235V45.7544L27.2526 45.2853Z" fill="#090814"/>
<path d="M27.2526 46.4712V47.087L32.2348 47.242V46.7327L27.2526 46.4712Z" fill="#090814"/>
<path d="M17.2256 58.5713C16.9129 58.5713 16.6178 58.4588 16.395 58.2545C16.1679 58.0463 16.0427 57.7683 16.0427 57.4717V53.5212C16.0427 52.9149 16.5735 52.4216 17.226 52.4216H22.532C23.1845 52.4216 23.7153 52.9149 23.7153 53.5212V57.4051C23.7153 58.0032 23.1917 58.4965 22.548 58.5046L17.2256 58.5713ZM17.226 52.6068C16.6834 52.6068 16.242 53.017 16.242 53.5212V57.4717C16.242 57.7184 16.346 57.9495 16.5349 58.1227C16.7203 58.2926 16.9655 58.3861 17.2256 58.3861L17.2394 58.386L22.5453 58.3194C23.0806 58.3126 23.516 57.9025 23.516 57.4051V53.5212C23.516 53.017 23.0745 52.6068 22.532 52.6068L17.226 52.6068Z" fill="#090814"/>
<path d="M25.8998 58.3148C25.5886 58.3148 25.2946 58.2031 25.0721 58.0005C24.8432 57.792 24.7171 57.5131 24.7171 57.2152V53.5212C24.7171 52.9149 25.2479 52.4216 25.9005 52.4216H30.3042C30.9567 52.4216 31.4876 52.9149 31.4876 53.5212V57.1334C31.4876 57.7277 30.9672 58.2209 30.3277 58.2328L25.8998 58.3148ZM25.9005 52.6068C25.3579 52.6068 24.9164 53.017 24.9164 53.5212V57.2152C24.9164 57.463 25.0212 57.6949 25.2116 57.8682C25.3967 58.0368 25.641 58.1296 25.8998 58.1296L25.9201 58.1294L30.3238 58.0476C30.8556 58.0378 31.2883 57.6276 31.2883 57.1334V53.5212C31.2883 53.017 30.8468 52.6068 30.3042 52.6068H25.9005Z" fill="#090814"/>
<path d="M33.3855 58.0326C33.0754 58.0326 32.7822 57.9216 32.5598 57.72C32.3297 57.5113 32.2029 57.2318 32.2029 56.9331V53.5212C32.2029 52.9149 32.7337 52.4216 33.3863 52.4216H37.1888C37.8355 52.4216 38.3663 52.9105 38.3721 53.5114L38.4038 56.8361C38.4094 57.4329 37.8916 57.9304 37.2495 57.945L33.3855 58.0326ZM33.3863 52.6068C32.8437 52.6068 32.4022 53.017 32.4022 53.5212V56.9331C32.4022 57.1815 32.5076 57.4139 32.699 57.5874C32.8839 57.7551 33.1277 57.8474 33.3855 57.8474L33.4107 57.8471L37.2446 57.7599C37.7786 57.7478 38.2092 57.3341 38.2045 56.8377L38.1728 53.513C38.168 53.0133 37.7266 52.6068 37.1888 52.6068L33.3863 52.6068Z" fill="#090814"/>
<path d="M17.4377 54.14V54.5888H21.704L21.7812 54.14H17.4377Z" fill="#090814"/>
<path d="M21.9435 49.8461L19.6216 47.1492L17.1096 49.4834L16.9687 49.3524L19.6382 46.8719L22.0992 49.7304L21.9435 49.8461Z" fill="#090814"/>
<path d="M23.4824 49.6645L22.0009 47.5591L20.8916 48.4688L20.7596 48.3299L22.0418 47.2787L23.6492 49.5632L23.4824 49.6645Z" fill="#090814"/>
<path opacity="0.5" d="M67.3195 31.9757C66.818 31.9757 66.3298 31.8131 65.9385 31.5085C65.4483 31.1272 65.1673 30.5678 65.1673 29.9739V22.9461C65.1673 22.0259 65.8382 21.2274 66.799 21.0042L79.0724 18.1531C79.7139 18.004 80.3829 18.1333 80.9072 18.5077C81.4316 18.8821 81.7383 19.4492 81.7486 20.0636L81.8802 27.8857C81.8968 28.8722 81.1501 29.714 80.1048 29.8873L67.6998 31.9443C67.5731 31.9653 67.4458 31.9757 67.3195 31.9757Z" fill="white"/>
<path d="M67.3194 32.0683C66.7927 32.0683 66.2795 31.8947 65.8745 31.5795C65.3617 31.1806 65.0676 30.5954 65.0676 29.9739V22.9461C65.0676 21.9834 65.7696 21.1479 66.7748 20.9145L79.0483 18.0633C79.7192 17.9074 80.4192 18.0425 80.9679 18.4343C81.5165 18.8261 81.8374 19.4194 81.8482 20.0622L81.9798 27.8843C81.9972 28.9165 81.216 29.7972 80.1223 29.9785L67.7172 32.0355C67.586 32.0573 67.4522 32.0683 67.3194 32.0683ZM79.5987 18.1852C79.4317 18.1852 79.2631 18.2042 79.0965 18.2429L66.8231 21.0941C65.9068 21.3069 65.2669 22.0685 65.2669 22.9461V29.9739C65.2669 30.5404 65.535 31.0739 66.0024 31.4375C66.4648 31.7974 67.0881 31.9518 67.6822 31.8532L80.0872 29.7962C81.0843 29.631 81.7964 28.8281 81.7805 27.8872L81.6489 20.0651C81.6391 19.4791 81.3466 18.9382 80.8464 18.5812C80.4824 18.3213 80.0455 18.1852 79.5987 18.1852Z" fill="#090814"/>
<path d="M69.0035 23.0759V23.8112L76.9751 22.2426L77.274 21.4093L69.0035 23.0759Z" fill="#090814"/>
<path d="M69.0035 24.8352V25.5704L76.9751 24.0019L77.274 23.1686L69.0035 24.8352Z" fill="#090814"/>
<path d="M69.0035 26.5944V27.3296L76.9751 25.761L77.274 24.9277L69.0035 26.5944Z" fill="#090814"/>
<path d="M69.0035 28.3536V29.0889L76.9751 27.5203L77.274 26.687L69.0035 28.3536Z" fill="#090814"/>
<path d="M48.1678 72.9207L69.408 72.5097L70.4354 79.2933L48.3019 78.3508C47.2911 79.3652 45.7192 80.0358 43.9362 80.0738C40.8163 80.1403 38.2391 78.2493 38.1799 75.8502C38.1206 73.451 40.6017 71.4521 43.7216 71.3856C45.5047 71.3476 47.108 71.9506 48.1678 72.9207Z" fill="#ED9DA0"/>
<path d="M69.3025 57.8899C69.3025 57.8899 68.605 61.9639 70.6975 63.3527C70.6975 63.3527 70 68.3526 71.6939 69.9266C71.6939 69.9266 68.581 70.0437 69.1909 71.5592C69.1909 71.5592 64.6192 70.8525 65.2171 72.6117C65.2171 72.6117 69.4478 77.33 68.4285 80.3874L82.2562 79.7412L83.7995 72.3429" fill="#0F172A"/>
</g>
<defs>
<clipPath id="clip0_18_55">
<rect width="70" height="63" fill="white" transform="translate(14 18)"/>
</clipPath>
</defs>
</svg>
