<svg width="100" height="100" viewBox="0 0 100 100" fill="none" xmlns="http://www.w3.org/2000/svg">
<circle cx="50" cy="50" r="50" fill="#F2F2F2"/>
<g clip-path="url(#clip0_18_56)">
<path d="M83.7911 22.9998H15.209C14.8857 23.0033 14.5769 23.1504 14.3502 23.4089C14.1236 23.6674 13.9977 24.0162 14 24.3787V76.6238C13.9983 76.9857 14.1245 77.3337 14.3511 77.5915C14.5777 77.8493 14.8862 77.9959 15.209 77.9993H83.7911C84.1139 77.9959 84.4223 77.8493 84.6489 77.5915C84.8755 77.3337 85.0017 76.9857 85 76.6238V24.3788C85.0024 24.0163 84.8765 23.6676 84.6499 23.4091C84.4233 23.1506 84.1145 23.0034 83.7912 22.9999L83.7911 22.9998Z" fill="#090814"/>
<path d="M73.7312 23.2729H15.2741C15.0006 23.2736 14.7385 23.3959 14.5454 23.613C14.3522 23.83 14.2437 24.1241 14.2437 24.4308V68.2978C14.2441 68.604 14.3528 68.8976 14.546 69.1142C14.7391 69.3307 15.001 69.4526 15.2741 69.4532H73.7311C74.0042 69.4526 74.2661 69.3307 74.4592 69.1142C74.6524 68.8976 74.7611 68.604 74.7615 68.2978V24.4313C74.7615 24.1247 74.653 23.8306 74.4599 23.6135C74.2667 23.3964 74.0047 23.2741 73.7312 23.2734V23.2729Z" fill="#090814"/>
<path d="M81.7643 23.2729H15.2813C14.9702 23.2736 14.672 23.4126 14.4522 23.6594C14.2324 23.9063 14.1089 24.2409 14.1089 24.5898V74.4794C14.1093 74.8279 14.2329 75.162 14.4527 75.4085C14.6725 75.6549 14.9705 75.7936 15.2813 75.794H81.7643C82.0751 75.7936 82.3731 75.6549 82.5929 75.4085C82.8126 75.162 82.9363 74.8279 82.9367 74.4794V24.5895C82.9367 24.2408 82.8133 23.9063 82.5937 23.6594C82.374 23.4126 82.0759 23.2735 81.7649 23.2727L81.7643 23.2729Z" fill="white"/>
<path d="M79.7519 30.147H17.5442C17.4785 30.147 17.4156 30.1178 17.3692 30.0657C17.3228 30.0137 17.2968 29.9431 17.2968 29.8696C17.2968 29.796 17.3228 29.7254 17.3692 29.6734C17.4156 29.6214 17.4785 29.5922 17.5442 29.5922H79.752C79.8176 29.5922 79.8805 29.6214 79.9269 29.6734C79.9733 29.7254 79.9994 29.796 79.9994 29.8696C79.9994 29.9431 79.9733 30.0137 79.9269 30.0657C79.8805 30.1178 79.8175 30.147 79.7519 30.147Z" fill="#CACACA"/>
<path d="M18.7521 28.1757C19.5528 28.1757 20.2019 27.4317 20.2019 26.514C20.2019 25.5962 19.5528 24.8522 18.7521 24.8522C17.9514 24.8522 17.3022 25.5962 17.3022 26.514C17.3022 27.4317 17.9514 28.1757 18.7521 28.1757Z" fill="#3F3D56"/>
<path d="M23.7604 28.1757C24.5611 28.1757 25.2102 27.4317 25.2102 26.514C25.2102 25.5962 24.5611 24.8522 23.7604 24.8522C22.9597 24.8522 22.3105 25.5962 22.3105 26.514C22.3105 27.4317 22.9597 28.1757 23.7604 28.1757Z" fill="#3F3D56"/>
<path d="M28.7687 28.1757C29.5694 28.1757 30.2185 27.4317 30.2185 26.514C30.2185 25.5962 29.5694 24.8522 28.7687 24.8522C27.968 24.8522 27.3188 25.5962 27.3188 26.514C27.3188 27.4317 27.968 28.1757 28.7687 28.1757Z" fill="#0F172A"/>
<path d="M78.5442 28.1757C79.3449 28.1757 79.994 27.4317 79.994 26.514C79.994 25.5962 79.3449 24.8522 78.5442 24.8522C77.7435 24.8522 77.0944 25.5962 77.0944 26.514C77.0944 27.4317 77.7435 28.1757 78.5442 28.1757Z" fill="#E6E6E6"/>
<path d="M66.2807 42.8376H52.0002C50.5613 42.8376 49.3948 44.1456 49.3948 45.759V49.4778C49.3948 51.0913 50.5613 52.3992 52.0002 52.3992H66.2807C67.7197 52.3992 68.8862 51.0913 68.8862 49.4778V45.759C68.8862 44.1456 67.7197 42.8376 66.2807 42.8376Z" fill="#0F172A"/>
<path d="M44.9996 42.8376H30.7191C29.2801 42.8376 28.1136 44.1456 28.1136 45.759V49.4778C28.1136 51.0913 29.2801 52.3992 30.7191 52.3992H44.9996C46.4386 52.3992 47.6051 51.0913 47.6051 49.4778V45.759C47.6051 44.1456 46.4386 42.8376 44.9996 42.8376Z" fill="#E6E6E6"/>
<path d="M58.897 50.2142C58.8373 50.2142 58.7798 50.1897 58.7352 50.1453C58.6906 50.1009 58.662 50.0397 58.655 49.9733C58.6093 49.5472 58.4376 49.1506 58.1673 48.8467C57.8975 48.5451 57.5457 48.3529 57.1676 48.3007C57.1266 48.2962 57.0872 48.2801 57.0533 48.2539C57.0193 48.2277 56.9918 48.1923 56.9734 48.1509C56.9549 48.1096 56.9461 48.0636 56.9478 48.0175C56.9495 47.9713 56.9617 47.9263 56.9831 47.8868C57.1143 47.6334 57.2957 47.4172 57.5132 47.2549C57.7308 47.0926 57.9788 46.9885 58.2379 46.9507C58.4166 46.482 58.7087 46.0786 59.0812 45.7863C59.4537 45.4939 59.8917 45.3243 60.3457 45.2965C60.3501 45.2965 60.3545 45.2965 60.359 45.2965C60.6173 45.2968 60.8651 45.412 61.0478 45.6169C61.2305 45.8217 61.3333 46.0995 61.3336 46.3892C61.3336 46.3942 61.3336 46.3991 61.3336 46.4041C61.3088 46.9131 61.1575 47.4043 60.8967 47.8219C60.6359 48.2395 60.2762 48.567 59.8581 48.7674C59.8243 49.059 59.731 49.3379 59.5854 49.5825C59.4398 49.8271 59.2459 50.0308 59.0187 50.1777C58.9817 50.2016 58.9397 50.2142 58.897 50.2142ZM57.6209 47.8539C57.957 47.973 58.2627 48.1809 58.5123 48.46C58.7611 48.7399 58.9463 49.0827 59.0524 49.4595C59.2573 49.2174 59.3754 48.8991 59.3843 48.5655C59.3859 48.5105 59.4024 48.4573 59.4314 48.413C59.4605 48.3686 59.5008 48.3351 59.5471 48.3169C59.91 48.1746 60.2271 47.9149 60.4584 47.5705C60.6896 47.2262 60.8245 46.8127 60.8461 46.3823C60.8443 46.2399 60.793 46.1038 60.7032 46.0031C60.6134 45.9024 60.4921 45.8449 60.365 45.8429C59.9812 45.8671 59.6123 46.0184 59.3051 46.2776C58.998 46.5369 58.7663 46.8925 58.6395 47.2995C58.6232 47.3514 58.5933 47.3967 58.5538 47.4293C58.5142 47.4618 58.4668 47.4802 58.4177 47.4821C58.1203 47.4921 57.8367 47.6244 57.6209 47.8539Z" fill="white"/>
<path d="M57.1821 50.3486C57.0982 50.3486 57.0144 50.3429 56.9311 50.3315C56.8726 50.3252 56.8177 50.2974 56.7747 50.2524C56.7318 50.2075 56.7033 50.1479 56.6936 50.083C56.6438 49.6829 56.7095 49.2754 56.8812 48.9203C57.0582 48.5546 57.329 48.2569 57.6586 48.0658C57.722 48.0279 57.7958 48.0181 57.8654 48.0384C57.935 48.0587 57.9952 48.1076 58.0342 48.1753C58.0518 48.2084 58.0631 48.2452 58.0674 48.2834C58.0716 48.3217 58.0687 48.3605 58.0589 48.3974C58.0491 48.4343 58.0325 48.4686 58.0103 48.4979C57.988 48.5273 57.9605 48.5512 57.9296 48.568C57.7282 48.681 57.5572 48.8521 57.4342 49.0636C57.3111 49.2752 57.2405 49.5196 57.2294 49.7718C57.4606 49.767 57.687 49.6976 57.8881 49.5698C58.0892 49.4419 58.2587 49.2598 58.3811 49.0399C58.4201 48.9722 58.4803 48.9233 58.5499 48.903C58.6195 48.8827 58.6933 48.8925 58.7568 48.9304C58.7877 48.9472 58.8151 48.971 58.8374 49.0004C58.8596 49.0298 58.8762 49.064 58.886 49.1009C58.8959 49.1379 58.8987 49.1767 58.8945 49.2149C58.8902 49.2531 58.8789 49.29 58.8613 49.323C58.6669 49.679 58.3823 49.9619 58.0438 50.1357C57.7739 50.2764 57.4798 50.349 57.1821 50.3486Z" fill="white"/>
<path d="M59.8752 47.3602C59.7996 47.3602 59.7256 47.3351 59.6627 47.2879C59.5998 47.2408 59.5508 47.1738 59.5218 47.0954C59.4928 47.017 59.4853 46.9308 59.5 46.8476C59.5148 46.7644 59.5512 46.6879 59.6047 46.628C59.6582 46.568 59.7264 46.5271 59.8006 46.5106C59.8748 46.494 59.9517 46.5025 60.0216 46.535C60.0915 46.5674 60.1513 46.6224 60.1933 46.693C60.2354 46.7635 60.2578 46.8464 60.2578 46.9313C60.2577 47.045 60.2173 47.154 60.1456 47.2345C60.0739 47.3149 59.9767 47.3601 59.8752 47.3602Z" fill="white"/>
<path d="M40.033 62.8156H57.1837C57.332 62.8156 57.4743 62.7496 57.5792 62.6319C57.6842 62.5143 57.7431 62.3548 57.7431 62.1884C57.7431 62.022 57.6842 61.8625 57.5792 61.7449C57.4743 61.6272 57.332 61.5612 57.1837 61.5612H40.033C39.8847 61.5612 39.7424 61.6272 39.6375 61.7449C39.5326 61.8625 39.4736 62.022 39.4736 62.1884C39.4736 62.3548 39.5326 62.5143 39.6375 62.6319C39.7424 62.7496 39.8847 62.8156 40.033 62.8156Z" fill="#E4E4E4"/>
<path d="M40.0332 65.9791H47.4675C47.6159 65.9791 47.7582 65.913 47.8631 65.7954C47.968 65.6778 48.0269 65.5182 48.0269 65.3519C48.0269 65.1855 47.968 65.026 47.8631 64.9083C47.7582 64.7907 47.6159 64.7246 47.4675 64.7246H40.0332C39.8848 64.7246 39.7425 64.7907 39.6376 64.9083C39.5327 65.026 39.4738 65.1855 39.4738 65.3519C39.4738 65.5183 39.5327 65.6778 39.6376 65.7955C39.7425 65.9131 39.8848 65.9792 40.0332 65.9792V65.9791Z" fill="#E4E4E4"/>
</g>
<defs>
<clipPath id="clip0_18_56">
<rect width="71" height="55" fill="white" transform="translate(14 23)"/>
</clipPath>
</defs>
</svg>
