<svg width="100" height="100" viewBox="0 0 100 100" fill="none" xmlns="http://www.w3.org/2000/svg">
<circle cx="50.0001" cy="50" r="50" fill="#F2F2F2"/>
<g clip-path="url(#clip0_18_54)">
<path d="M15.4044 24.4918C15.2696 24.4917 15.1403 24.545 15.0448 24.6401C14.9493 24.7351 14.8954 24.8642 14.8949 24.9989L14.7697 79.3909C14.7696 79.5257 14.8229 79.655 14.9179 79.7505C15.013 79.846 15.1421 79.8999 15.2768 79.9004L59.0954 80.0012C59.2301 80.0013 59.3595 79.948 59.455 79.8529C59.5505 79.7578 59.6044 79.6287 59.6049 79.494L59.7301 25.102C59.7302 24.9672 59.6769 24.8379 59.5818 24.7424C59.4867 24.6469 59.3576 24.593 59.2229 24.5926L15.4044 24.4918Z" fill="#E6E6E6"/>
<path d="M16.5256 25.5002C16.3877 25.5001 16.2553 25.5547 16.1575 25.652C16.0597 25.7494 16.0045 25.8815 16.004 26.0195L15.884 78.3791C15.8839 78.5171 15.9385 78.6495 16.0358 78.7473C16.1332 78.845 16.2653 78.9002 16.4033 78.9007L57.937 78.996C58.075 78.9961 58.2074 78.9415 58.3051 78.8442C58.4029 78.7469 58.4581 78.6147 58.4586 78.4767L58.5786 26.1171C58.5787 25.9791 58.5242 25.8467 58.4268 25.7489C58.3294 25.6511 58.1973 25.5959 58.0593 25.5955L16.5256 25.5002Z" fill="white"/>
<path d="M52.2038 48.3287L22.3139 48.2599C22.2131 48.2608 22.1131 48.2417 22.0197 48.2036C21.9263 48.1656 21.8414 48.1094 21.7698 48.0383C21.6983 47.9672 21.6416 47.8827 21.603 47.7895C21.5643 47.6964 21.5446 47.5965 21.5448 47.4956C21.545 47.3948 21.5653 47.295 21.6043 47.202C21.6434 47.1091 21.7005 47.0248 21.7724 46.954C21.8442 46.8833 21.9294 46.8275 22.023 46.7899C22.1165 46.7523 22.2166 46.7336 22.3174 46.7349L52.2073 46.8038C52.3081 46.8029 52.4081 46.8221 52.5015 46.8601C52.5949 46.8981 52.6798 46.9543 52.7514 47.0254C52.8229 47.0965 52.8796 47.181 52.9182 47.2742C52.9569 47.3673 52.9766 47.4672 52.9764 47.5681C52.9762 47.6689 52.9559 47.7687 52.9169 47.8617C52.8778 47.9546 52.8207 48.0389 52.7489 48.1097C52.677 48.1804 52.5918 48.2362 52.4983 48.2738C52.4047 48.3114 52.3046 48.33 52.2038 48.3287Z" fill="#E6E6E6"/>
<path d="M52.4933 34.1214L32.6633 34.0754C32.3839 34.0747 32.1585 33.7325 32.1591 33.3117C32.1597 32.8909 32.3877 32.5498 32.6668 32.5503L52.4968 32.5959C52.7762 32.5966 53.0016 32.9388 53.001 33.3596C53.0004 33.7804 52.7723 34.1224 52.4933 34.1214Z" fill="#E6E6E6"/>
<path d="M52.4831 38.493L32.6531 38.4473C32.3737 38.4467 32.1484 38.1045 32.1489 37.6836C32.1495 37.2628 32.3775 36.9218 32.6566 36.9222L52.4866 36.9679C52.766 36.9685 52.9914 37.3107 52.9908 37.7315C52.9902 38.1524 52.7625 38.4935 52.4831 38.493Z" fill="#E6E6E6"/>
<path d="M52.1921 53.2595L22.302 53.1908C22.2012 53.1917 22.1012 53.1726 22.0078 53.1345C21.9144 53.0965 21.8295 53.0403 21.7579 52.9692C21.6864 52.8981 21.6297 52.8136 21.5911 52.7204C21.5524 52.6273 21.5327 52.5274 21.5329 52.4266C21.5331 52.3257 21.5534 52.2259 21.5924 52.133C21.6315 52.04 21.6886 51.9557 21.7605 51.8849C21.8323 51.8142 21.9175 51.7584 22.0111 51.7208C22.1046 51.6832 22.2047 51.6645 22.3055 51.6658L52.1954 51.7346C52.3968 51.734 52.5903 51.8131 52.7336 51.9547C52.8768 52.0962 52.9583 52.2887 52.9602 52.4901C52.962 52.6915 52.8841 52.8855 52.7435 53.0296C52.6028 53.1738 52.4109 53.2565 52.2095 53.2596H52.1919L52.1921 53.2595Z" fill="#E6E6E6"/>
<path d="M52.1815 58.1904L22.2915 58.1215C22.1906 58.1224 22.0906 58.1032 21.9972 58.0652C21.9038 58.0272 21.8189 57.971 21.7474 57.8999C21.6759 57.8288 21.6191 57.7442 21.5805 57.6511C21.5419 57.5579 21.5221 57.4581 21.5223 57.3572C21.5226 57.2564 21.5428 57.1566 21.5819 57.0636C21.6209 56.9706 21.678 56.8864 21.7499 56.8156C21.8218 56.7449 21.9069 56.6891 22.0005 56.6515C22.0941 56.6138 22.1942 56.5952 22.295 56.5965L52.1848 56.6654C52.2853 56.6638 52.3852 56.6821 52.4786 56.7193C52.572 56.7565 52.6571 56.8118 52.7291 56.882C52.801 56.9521 52.8584 57.0359 52.8979 57.1283C52.9373 57.2208 52.9582 57.3201 52.9591 57.4206C52.9601 57.5211 52.9411 57.6209 52.9034 57.714C52.8657 57.8072 52.8099 57.892 52.7393 57.9635C52.6686 58.0351 52.5846 58.0919 52.4919 58.1309C52.3992 58.1698 52.2997 58.19 52.1992 58.1904H52.1813H52.1815Z" fill="#E6E6E6"/>
<path d="M52.1699 63.1213L22.28 63.0524C22.1792 63.0533 22.0792 63.0341 21.9858 62.9961C21.8924 62.9581 21.8075 62.9019 21.736 62.8308C21.6644 62.7597 21.6077 62.6752 21.5691 62.582C21.5305 62.4889 21.5107 62.389 21.5109 62.2881C21.5112 62.1873 21.5314 62.0875 21.5705 61.9945C21.6095 61.9016 21.6666 61.8173 21.7385 61.7465C21.8103 61.6758 21.8955 61.62 21.9891 61.5824C22.0826 61.5448 22.1827 61.5261 22.2836 61.5274L52.1734 61.5963C52.3749 61.5956 52.5684 61.6746 52.7118 61.8161C52.8551 61.9577 52.9366 62.1502 52.9385 62.3516C52.9404 62.5531 52.8626 62.7471 52.7219 62.8913C52.5812 63.0355 52.3892 63.1182 52.1878 63.1213H52.1699Z" fill="#E6E6E6"/>
<path d="M37.4534 67.8389L22.2686 67.7701C22.1678 67.7709 22.0678 67.7518 21.9744 67.7138C21.881 67.6757 21.7961 67.6195 21.7246 67.5484C21.653 67.4774 21.5963 67.3928 21.5577 67.2997C21.519 67.2065 21.4993 67.1066 21.4995 67.0058C21.4997 66.9049 21.52 66.8051 21.559 66.7122C21.5981 66.6192 21.6552 66.5349 21.7271 66.4642C21.7989 66.3934 21.8841 66.3376 21.9777 66.3C22.0712 66.2624 22.1713 66.2437 22.2722 66.2451L37.4569 66.314C37.5574 66.3125 37.6572 66.3308 37.7506 66.368C37.844 66.4051 37.9291 66.4604 38.0011 66.5306C38.0731 66.6008 38.1304 66.6845 38.1699 66.777C38.2094 66.8694 38.2302 66.9688 38.2312 67.0693C38.2321 67.1698 38.2132 67.2695 38.1754 67.3627C38.1377 67.4559 38.0819 67.5407 38.0113 67.6122C37.9407 67.6837 37.8566 67.7406 37.7639 67.7795C37.6712 67.8184 37.5718 67.8387 37.4713 67.839L37.4534 67.8389Z" fill="#E6E6E6"/>
<path d="M37.442 72.7695L22.2573 72.7006C22.1564 72.7015 22.0564 72.6823 21.963 72.6443C21.8697 72.6062 21.7847 72.5501 21.7132 72.479C21.6417 72.4079 21.585 72.3233 21.5463 72.2302C21.5077 72.137 21.4879 72.0372 21.4882 71.9363C21.4884 71.8355 21.5086 71.7357 21.5477 71.6427C21.5867 71.5497 21.6439 71.4654 21.7157 71.3947C21.7876 71.324 21.8727 71.2682 21.9663 71.2306C22.0599 71.1929 22.16 71.1743 22.2608 71.1756L37.4455 71.2445C37.546 71.2429 37.6459 71.2612 37.7393 71.2984C37.8327 71.3356 37.9178 71.3909 37.9898 71.4611C38.0617 71.5312 38.1191 71.615 38.1586 71.7074C38.198 71.7999 38.2189 71.8992 38.2198 71.9997C38.2208 72.1002 38.2018 72.2 38.1641 72.2931C38.1264 72.3863 38.0706 72.4711 38 72.5426C37.9293 72.6142 37.8453 72.671 37.7526 72.71C37.6599 72.7489 37.5604 72.7691 37.4599 72.7695H37.442Z" fill="#E6E6E6"/>
<path d="M57.625 27.682V22.8145C57.6332 22.4528 57.57 22.0931 57.4391 21.7558C57.3082 21.4186 57.1121 21.1104 56.862 20.849C56.612 20.5875 56.3129 20.3779 55.9818 20.2321C55.6507 20.0863 55.2941 20.0072 54.9325 19.9992C54.5708 19.9912 54.2111 20.0546 53.8739 20.1857C53.5367 20.3168 53.2287 20.5131 52.9674 20.7633C52.7061 21.0135 52.4966 21.3127 52.351 21.6439C52.2054 21.9751 52.1265 22.3317 52.1187 22.6934H52.7247C52.7464 22.1385 52.9819 21.6135 53.3819 21.2284C53.7819 20.8432 54.3153 20.6276 54.8706 20.6268H54.9021C55.4723 20.636 56.0155 20.8712 56.4124 21.2806C56.8093 21.69 57.0276 22.2402 57.0192 22.8103V27.7212C57.0142 28.1001 56.8603 28.4618 56.5907 28.7281C56.3212 28.9945 55.9577 29.1441 55.5788 29.1446H55.5611C55.1785 29.1393 54.8138 28.9823 54.5469 28.7081C54.2801 28.434 54.133 28.0651 54.1381 27.6825L54.1414 22.8478C54.1411 22.7525 54.1596 22.6581 54.1957 22.5699C54.2319 22.4818 54.2851 22.4016 54.3523 22.334C54.4195 22.2664 54.4993 22.2126 54.5872 22.1759C54.6751 22.1391 54.7695 22.12 54.8648 22.1197C54.9601 22.1194 55.0545 22.1379 55.1427 22.1741C55.2308 22.2102 55.311 22.2634 55.3786 22.3306C55.4462 22.3978 55.5 22.4776 55.5367 22.5655C55.5735 22.6535 55.5926 22.7478 55.5929 22.8431V24.2477C55.5929 24.3281 55.6248 24.4051 55.6816 24.4619C55.7384 24.5188 55.8155 24.5507 55.8959 24.5507C55.9762 24.5507 56.0533 24.5188 56.1101 24.4619C56.1669 24.4051 56.1989 24.3281 56.1989 24.2477V22.8382C56.1986 22.6634 56.1638 22.4903 56.0966 22.3289C56.0294 22.1674 55.9311 22.0208 55.8073 21.8974C55.6834 21.774 55.5365 21.6761 55.3748 21.6095C55.2131 21.5429 55.04 21.5087 54.8651 21.509C54.6902 21.5093 54.5172 21.5441 54.3557 21.6113C54.1943 21.6784 54.0477 21.7768 53.9243 21.9006C53.8008 22.0245 53.703 22.1714 53.6364 22.3331C53.5697 22.4947 53.5356 22.6679 53.5359 22.8428L53.5328 27.6786C53.5268 28.2212 53.7362 28.744 54.1152 29.1323C54.4942 29.5206 55.0118 29.7428 55.5543 29.75H55.5796C56.118 29.7491 56.6344 29.5364 57.0173 29.1578C57.4001 28.7792 57.6186 28.2651 57.6255 27.7267C57.6251 27.711 57.6251 27.6952 57.625 27.682Z" fill="#0F172A"/>
<path d="M52.1188 69.5534C52.1195 70.1542 52.0124 70.7503 51.8025 71.3132C51.7071 71.571 51.5902 71.8203 51.4529 72.0585C51.0115 72.8287 50.3745 73.4687 49.6064 73.9139C48.8383 74.359 47.9663 74.5934 47.0785 74.5934C46.1908 74.5934 45.3188 74.359 44.5507 73.9139C43.7826 73.4687 43.1456 72.8287 42.7042 72.0585C42.6598 71.981 42.6174 71.9024 42.5771 71.8226C42.2345 71.143 42.0502 70.3946 42.0381 69.6336C42.026 68.8726 42.1864 68.1187 42.5073 67.4285C42.8282 66.7384 43.3012 66.1298 43.8908 65.6486C44.4804 65.1673 45.1714 64.8258 45.9119 64.6497C46.6523 64.4736 47.423 64.4675 48.1662 64.6318C48.9093 64.7961 49.6057 65.1265 50.2029 65.5984C50.8001 66.0702 51.2827 66.6712 51.6145 67.3561C51.9463 68.0411 52.1187 68.7923 52.1188 69.5534Z" fill="#E4E4E4"/>
<path d="M29.5282 35.348C29.529 35.9488 29.4218 36.5448 29.2119 37.1077C29.1166 37.3656 28.9996 37.6149 28.8623 37.853C28.4209 38.6233 27.784 39.2633 27.0159 39.7084C26.2478 40.1534 25.3758 40.3878 24.488 40.3878C23.6003 40.3878 22.7283 40.1534 21.9602 39.7084C21.1921 39.2633 20.5552 38.6233 20.1138 37.853C20.0693 37.7756 20.0269 37.697 19.9866 37.6171C19.644 36.9375 19.4597 36.1891 19.4477 35.4281C19.4356 34.6671 19.596 33.9132 19.9168 33.2231C20.2377 32.5329 20.7107 31.9244 21.3003 31.4431C21.89 30.9618 22.5809 30.6204 23.3214 30.4443C24.0618 30.2682 24.8326 30.262 25.5757 30.4263C26.3189 30.5906 27.0152 30.9211 27.6124 31.3929C28.2096 31.8648 28.6922 32.4657 29.024 33.1507C29.3558 33.8357 29.5282 34.5869 29.5282 35.348Z" fill="#E4E4E4"/>
<path d="M24.4875 35.7405C25.0197 35.7405 25.4511 35.3091 25.4511 34.7769C25.4511 34.2448 25.0197 33.8134 24.4875 33.8134C23.9553 33.8134 23.5239 34.2448 23.5239 34.7769C23.5239 35.3091 23.9553 35.7405 24.4875 35.7405Z" fill="#090814"/>
<path d="M19.9866 37.6173C20.4111 37.1584 20.9786 36.4301 21.511 36.9563C21.7781 37.2046 22.1967 37.8198 22.5967 37.4176L25.7219 34.2924C25.7807 34.2343 25.8506 34.1886 25.9274 34.1579C26.0041 34.1272 26.0862 34.1121 26.1689 34.1136C26.2516 34.1151 26.3331 34.1331 26.4087 34.1665C26.4843 34.2 26.5525 34.2482 26.6092 34.3083L29.2121 37.1082C29.1167 37.3661 28.9998 37.6154 28.8625 37.8535H20.1137L19.9866 37.6173Z" fill="#0F172A"/>
<path d="M55.5871 28.4767C55.9819 28.4767 56.3019 28.1566 56.3019 27.7618C56.3019 27.367 55.9819 27.047 55.5871 27.047C55.1923 27.047 54.8723 27.367 54.8723 27.7618C54.8723 28.1566 55.1923 28.4767 55.5871 28.4767Z" fill="#0F172A"/>
<path d="M84.026 56.2618C83.9963 56.2618 83.9665 56.2609 83.9367 56.2592L81.0686 56.0973L80.991 55.9231L81.0453 55.8988L87.0108 53.2424L87.0885 53.4167L85.2635 55.6719C85.1141 55.8561 84.9255 56.0046 84.7114 56.1068C84.4974 56.2089 84.2632 56.2621 84.0261 56.2623L84.026 56.2618Z" fill="#0F172A"/>
<path d="M88.2525 79.7881H12V80.0012H88.2525V79.7881Z" fill="#CCCCCC"/>
<path d="M78.226 50.1874L70.4473 49.2283L70.8735 42.4086H78.2257L78.226 50.1874Z" fill="#FFB9B9"/>
<path d="M82.8429 59.1272C82.7067 59.1269 82.5735 59.0868 82.4598 59.0118C82.3461 58.9368 82.2568 58.8301 82.203 58.705L80.9987 55.8956L84.5682 55.908L87.0208 53.3143L88.197 56.0606C88.2682 56.2289 88.2707 56.4184 88.204 56.5885C88.1373 56.7586 88.0066 56.8958 87.8399 56.9707L83.1258 59.0669C83.0368 59.1066 82.9404 59.1272 82.8429 59.1272Z" fill="#0F172A"/>
<path opacity="0.242" d="M84.026 56.2618C83.9963 56.2618 83.9665 56.2609 83.9367 56.2592L81.0686 56.0973L80.991 55.9231L81.0453 55.8988L87.0108 53.2424L87.0885 53.4167L85.2635 55.6719C85.1141 55.8561 84.9255 56.0046 84.7114 56.1068C84.4974 56.2089 84.2632 56.2621 84.0261 56.2623L84.026 56.2618Z" fill="#090814"/>
<path d="M79.1825 32.4559L71.5875 32.5511C71.4449 32.5509 71.3083 32.4942 71.2075 32.3934C71.1067 32.2926 71.05 32.156 71.0498 32.0134V29.5036C71.0498 28.4419 71.4716 27.4237 72.2223 26.673C72.973 25.9222 73.9912 25.5005 75.0529 25.5005C76.1146 25.5005 77.1328 25.9222 77.8835 26.673C78.6343 27.4237 79.056 28.4419 79.056 29.5036L79.7203 31.9181C79.7201 32.0607 79.6635 32.1974 79.5627 32.2982C79.4618 32.399 79.3251 32.4557 79.1825 32.4559Z" fill="#090814"/>
<path d="M82.9008 54.9316C82.7745 54.8172 82.6747 54.6765 82.6086 54.5194C82.5424 54.3623 82.5116 54.1925 82.5181 54.0222C82.5247 53.8519 82.5685 53.685 82.6466 53.5334C82.7246 53.3819 82.8349 53.2493 82.9697 53.1449L81.6483 49.2175L83.7301 49.7677L84.666 53.4128C84.8271 53.6509 84.8951 53.9399 84.8571 54.2248C84.8191 54.5097 84.6777 54.7708 84.4598 54.9582C84.2419 55.1457 83.9626 55.2466 83.6752 55.2417C83.3878 55.2368 83.1122 55.1264 82.9008 54.9316Z" fill="#FFB6B6"/>
<path d="M73.9014 80.1893L72.0933 79.9365L72.3645 73.8033L75.0335 74.1763L73.9014 80.1893Z" fill="#FFB9B9"/>
<path d="M82.2356 76.9867L80.6108 77.7249L76.3071 72.1013L78.7051 71.0118L82.2356 76.9867Z" fill="#FFB9B9"/>
<path d="M75.0197 32.5246C76.5508 32.5246 77.792 31.2834 77.792 29.7523C77.792 28.2212 76.5508 26.98 75.0197 26.98C73.4886 26.98 72.2474 28.2212 72.2474 29.7523C72.2474 31.2834 73.4886 32.5246 75.0197 32.5246Z" fill="#FFB9B9"/>
<path d="M77.2147 74.9719L70.7222 58.4165C68.3985 52.0693 70.4746 47.6948 70.496 47.6513L70.5067 47.63L70.5289 47.6219C70.7955 48.66 76.8406 48.5889 78.2258 46.9906C79.0344 47.6698 80.1105 49.269 80.3411 51.1801C80.582 53.2302 80.3993 55.308 79.8043 57.2846L77.2468 65.9543L80.4109 73.0822L77.2147 74.9719Z" fill="#090814"/>
<path d="M74.0838 64.7029L71.74 76.5902L74.8622 77.1789L76.8266 66.8894L74.0838 64.7029Z" fill="#090814"/>
<path d="M76.4094 31.8944C76.4094 31.8944 76.3606 33.8973 76.556 33.9461C76.7514 33.9948 73.8692 34.7765 73.8692 34.7765L73.5761 32.0409L76.4094 31.8944Z" fill="#FFB9B9"/>
<path d="M70.66 44.4332C71.1594 44.5666 76.0966 46.6011 78.4388 44.5398L80.2768 35.4648L78.0747 34.7702L77.3063 33.8358C77.223 33.7344 77.1181 33.6531 76.9991 33.5979C76.8802 33.5427 76.7503 33.5151 76.6192 33.5169L73.8874 33.5535C73.7666 33.5553 73.6474 33.582 73.5373 33.632C73.4273 33.682 73.3288 33.7542 73.248 33.8441L72.373 34.8199L70.3965 35.2799L70.66 44.4332Z" fill="#0F172A"/>
<path d="M79.4388 36.1725L80.0372 35.3756C80.0372 35.3756 81.1337 35.6637 81.6908 37.235C82.2479 38.8063 84.5304 51.3596 84.5304 51.3596L82.0724 52.5008L78.7438 41.406L79.4388 36.1725Z" fill="#0F172A"/>
<path d="M59.742 51.1224C59.7652 50.9535 59.8252 50.7918 59.9176 50.6486C60.0101 50.5054 60.1329 50.3843 60.2772 50.2937C60.4216 50.203 60.5841 50.1452 60.7532 50.1241C60.9223 50.1031 61.0941 50.1194 61.2562 50.1719L63.7545 46.866L64.474 48.8955L61.9911 51.724C61.8852 51.991 61.6849 52.2099 61.4282 52.339C61.1716 52.4681 60.8764 52.4984 60.5989 52.4242C60.3213 52.35 60.0807 52.1764 59.9227 51.9365C59.7646 51.6966 59.7002 51.407 59.7417 51.1227L59.742 51.1224Z" fill="#FFB6B6"/>
<path d="M71.2745 35.9966L70.4467 35.269C70.4467 35.269 69.5796 35.4881 69.0225 37.0595C68.4654 38.6308 61.3547 49.1646 61.3547 49.1646L63.8127 50.3058L71.9696 41.2299L71.2745 35.9966Z" fill="#0F172A"/>
<path d="M77.9086 29.5694H74.0337C73.9609 29.5693 73.8907 29.5427 73.8361 29.4945C73.7815 29.4464 73.7464 29.3799 73.7373 29.3077L73.6871 28.9064C73.6822 28.8678 73.6649 28.8319 73.6379 28.804C73.6108 28.7761 73.5754 28.7578 73.537 28.7518C73.4986 28.7458 73.4593 28.7524 73.425 28.7707C73.3907 28.789 73.3632 28.8179 73.3468 28.8532L73.0926 29.397C73.0685 29.4484 73.0302 29.4919 72.9823 29.5224C72.9344 29.5529 72.8788 29.5692 72.822 29.5693H72.2334C72.1942 29.5694 72.1554 29.5617 72.1192 29.5468C72.083 29.5319 72.0501 29.5099 72.0223 29.4823C71.9946 29.4546 71.9725 29.4218 71.9575 29.3856C71.9424 29.3494 71.9346 29.3106 71.9346 29.2714C71.9346 29.2617 71.935 29.2519 71.936 29.2421L72.1681 26.818C72.173 26.7662 72.1914 26.7165 72.2212 26.6739C72.2511 26.6313 72.2915 26.5971 72.3386 26.5748C74.1131 25.7462 75.9126 25.7475 77.6872 26.578C77.7323 26.5992 77.7713 26.6312 77.8008 26.6713C77.8303 26.7113 77.8494 26.7581 77.8563 26.8073L78.204 29.2282C78.2101 29.2705 78.207 29.3137 78.195 29.3548C78.183 29.3958 78.1623 29.4338 78.1343 29.4661C78.1063 29.4985 78.0716 29.5244 78.0327 29.5422C77.9938 29.56 77.9515 29.5692 77.9088 29.5692L77.9086 29.5694Z" fill="#2F2E41"/>
<path d="M74.2465 78.8845C74.2465 78.8845 74.9852 81.1874 74.2544 81.5219C73.5236 81.8564 72.5856 81.4688 71.7956 81.7351C71.0056 82.0014 68.9475 81.0856 68.9475 81.0856C68.9475 81.0856 68.7403 80.3637 70.1618 80.2704C70.1618 80.2704 71.7747 79.2256 71.7926 78.97C71.8105 78.7144 72.7064 78.7765 72.7064 78.7765L74.2465 78.8845Z" fill="#090814"/>
<path d="M82.6122 76.9517C82.6122 76.9517 83.7395 79.0901 83.0783 79.5464C82.4171 80.0027 81.4264 79.7842 80.6951 80.1836C79.9637 80.5829 77.7788 80.0391 77.7788 80.0391C77.7788 80.0391 77.4493 79.3646 78.8324 79.0258C78.8324 79.0258 80.2384 77.717 80.2116 77.4623C80.1848 77.2076 81.0775 77.1131 81.0775 77.1131L82.6122 76.9517Z" fill="#090814"/>
</g>
<defs>
<clipPath id="clip0_18_54">
<rect width="76.2525" height="62" fill="white" transform="translate(12 20)"/>
</clipPath>
</defs>
</svg>
